<svg width="17" height="16" viewBox="0 0 17 16" fill="none" xmlns="http://www.w3.org/2000/svg">
<path d="M3.58984 10.0026H2.92318C2.56956 10.0026 2.23042 9.86213 1.98037 9.61208C1.73032 9.36203 1.58984 9.02289 1.58984 8.66927V2.66927C1.58984 2.31565 1.73032 1.97651 1.98037 1.72646C2.23042 1.47641 2.56956 1.33594 2.92318 1.33594H8.92318C9.2768 1.33594 9.61594 1.47641 9.86599 1.72646C10.116 1.97651 10.2565 2.31565 10.2565 2.66927V3.33594M7.58984 6.0026H13.5898C14.3262 6.0026 14.9232 6.59956 14.9232 7.33594V13.3359C14.9232 14.0723 14.3262 14.6693 13.5898 14.6693H7.58984C6.85346 14.6693 6.25651 14.0723 6.25651 13.3359V7.33594C6.25651 6.59956 6.85346 6.0026 7.58984 6.0026Z" stroke="#2D2D2D" stroke-width="1.5" stroke-linecap="round" stroke-linejoin="round"/>
</svg>
