<svg width="17" height="16" viewBox="0 0 17 16" fill="none" xmlns="http://www.w3.org/2000/svg">
<path d="M2.25684 4.0026H3.59017M3.59017 4.0026H14.2568M3.59017 4.0026V13.3359C3.59017 13.6896 3.73065 14.0287 3.98069 14.2787C4.23074 14.5288 4.56988 14.6693 4.9235 14.6693H11.5902C11.9438 14.6693 12.2829 14.5288 12.533 14.2787C12.783 14.0287 12.9235 13.6896 12.9235 13.3359V4.0026H3.59017ZM5.59017 4.0026V2.66927C5.59017 2.31565 5.73065 1.97651 5.98069 1.72646C6.23074 1.47641 6.56988 1.33594 6.9235 1.33594H9.59017C9.94379 1.33594 10.2829 1.47641 10.533 1.72646C10.783 1.97651 10.9235 2.31565 10.9235 2.66927V4.0026M6.9235 7.33594V11.3359M9.59017 7.33594V11.3359" stroke="#2D2D2D" stroke-width="1.5" stroke-linecap="round" stroke-linejoin="round"/>
</svg>
