<svg width="30" height="30" viewBox="0 0 30 30" fill="none" xmlns="http://www.w3.org/2000/svg">
<mask id="mask0_714_1594" style="mask-type:alpha" maskUnits="userSpaceOnUse" x="2" y="6" width="26" height="18">
<rect x="2.1001" y="6" width="25.8" height="18" fill="#D9D9D9"/>
</mask>
<g mask="url(#mask0_714_1594)">
<path fill-rule="evenodd" clip-rule="evenodd" d="M4.52821 8.17678C4.56436 8.12646 4.63494 8.11761 4.6841 8.15534L14.7203 15.8582L14.9566 16.0395C14.9972 16.0707 15.0536 16.0706 15.0942 16.0394L15.33 15.8575L25.3173 8.15768C25.3665 8.11977 25.4373 8.12859 25.4734 8.17906C25.8049 8.64145 26 9.2082 26 9.82051V21.1026C26 22.6603 24.7372 23.9231 23.1795 23.9231H6.82051C5.26279 23.9231 4 22.6603 4 21.1026V9.82051C4 9.20719 4.19576 8.63959 4.52821 8.17678ZM5.48592 7.51016C5.42304 7.4619 5.42835 7.36567 5.49834 7.32846C5.8927 7.1188 6.34273 7 6.82051 7H23.1795C23.6586 7 24.1098 7.11945 24.5049 7.33018C24.5747 7.36741 24.58 7.46339 24.5174 7.5117L15.0928 14.7777C15.0523 14.809 14.9958 14.809 14.9552 14.7779L5.48592 7.51016Z" fill="#112378"/>
</g>
</svg>
