<svg width="22" height="20" viewBox="0 0 22 20" fill="none" xmlns="http://www.w3.org/2000/svg">
<path d="M6.10192 16.44C6.02069 16.44 5.93948 16.4307 5.85826 16.4215C5.24908 16.3478 4.73128 15.9977 4.47745 15.5001L3.19817 12.9475C1.16758 11.5837 0 9.54737 0 7.33581C0 3.40114 3.75659 0.194427 8.37619 0.194427C11.6353 0.194427 14.6101 1.8162 15.9604 4.33182C16.4782 5.2625 16.7524 6.27613 16.7524 7.33581C16.7524 11.1692 13.1887 14.3114 8.74169 14.468L7.46243 15.8686C7.11723 16.228 6.61972 16.44 6.10192 16.44ZM8.37619 1.56741C4.59929 1.56741 1.52294 4.14752 1.52294 7.32659C1.52294 9.14192 2.51792 10.8189 4.24393 11.9247C4.35561 11.9984 4.44698 12.0905 4.49775 12.2011L5.85826 14.9194C5.90902 15.0208 6.01055 15.0485 6.06131 15.0485C6.11208 15.0578 6.21361 15.0484 6.28468 14.9747L7.78732 13.3346C7.92946 13.178 8.14267 13.0858 8.37619 13.0858C12.1531 13.0858 15.2294 10.5057 15.2294 7.32659C15.2294 6.48805 15.0162 5.68635 14.6 4.93996C13.5034 2.88508 11.0566 1.56741 8.37619 1.56741Z" fill="#2D2D2D"/>
<path d="M15.7267 19.9991C15.1988 19.9991 14.7115 19.7872 14.3663 19.4186L13.087 18.0272C10.63 17.935 8.31507 16.9122 6.83274 15.2536C6.59922 14.9955 6.60938 14.627 6.8429 14.3782L7.78712 13.3461C7.92926 13.1895 8.14247 13.0973 8.37599 13.0973C12.1529 13.0973 15.2293 10.5172 15.2293 7.33815C15.2293 6.49961 15.016 5.69791 14.5998 4.95152C14.4678 4.71193 14.4982 4.42629 14.681 4.21435C14.8637 4.00241 15.1683 3.91025 15.4526 3.96553C19.2092 4.74878 21.8287 7.59614 21.8287 10.895C21.8287 13.1065 20.6611 15.143 18.6305 16.5067L17.3512 19.0592C17.0872 19.5752 16.5694 19.9254 15.9501 19.9899C15.879 19.9991 15.7978 19.9991 15.7267 19.9991ZM8.4369 14.7928C9.70604 15.9631 11.5336 16.645 13.4525 16.645C13.6758 16.645 13.8891 16.7371 14.0414 16.8938L15.544 18.534C15.6151 18.6169 15.7064 18.6261 15.7674 18.6169C15.808 18.6169 15.9197 18.5893 15.9806 18.4787L17.3411 15.7604C17.402 15.6498 17.4832 15.5484 17.5949 15.4839C19.3209 14.3782 20.3159 12.7011 20.3159 10.8858C20.3159 8.67426 18.8234 6.71157 16.5491 5.74402C16.6913 6.26005 16.7623 6.78526 16.7623 7.32892C16.7623 11.1622 13.1987 14.3044 8.75165 14.4611L8.4369 14.7928Z" fill="#2D2D2D"/>
<path d="M10.9142 8.01795H5.8377C5.42143 8.01795 5.07623 7.70465 5.07623 7.32684C5.07623 6.94904 5.42143 6.63574 5.8377 6.63574H10.9142C11.3305 6.63574 11.6757 6.94904 11.6757 7.32684C11.6757 7.70465 11.3305 8.01795 10.9142 8.01795Z" fill="#2D2D2D"/>
</svg>
