<svg width="22" height="20" viewBox="0 0 22 20" fill="none" xmlns="http://www.w3.org/2000/svg">
<path d="M6.10192 16.4408C6.02069 16.4408 5.93948 16.4316 5.85826 16.4224C5.24908 16.3487 4.73128 15.9985 4.47745 15.5009L3.19817 12.9484C1.16758 11.5846 0 9.54825 0 7.3367C0 3.40203 3.75659 0.195312 8.37619 0.195312C11.6353 0.195312 14.6101 1.81709 15.9604 4.3327C16.4782 5.26338 16.7524 6.27701 16.7524 7.3367C16.7524 11.17 13.1887 14.3122 8.7417 14.4689L7.46243 15.8695C7.11723 16.2289 6.61972 16.4408 6.10192 16.4408ZM8.37619 1.56829C4.59929 1.56829 1.52294 4.14841 1.52294 7.32748C1.52294 9.14281 2.51792 10.8198 4.24393 11.9256C4.35561 11.9993 4.44698 12.0914 4.49775 12.202L5.85826 14.9203C5.90902 15.0217 6.01055 15.0494 6.06131 15.0494C6.11208 15.0586 6.21361 15.0493 6.28468 14.9756L7.78732 13.3355C7.92946 13.1788 8.14267 13.0867 8.37619 13.0867C12.1531 13.0867 15.2294 10.5066 15.2294 7.32748C15.2294 6.48894 15.0162 5.68723 14.6 4.94084C13.5034 2.88597 11.0566 1.56829 8.37619 1.56829Z" fill="#112378"/>
<path d="M15.7267 19.9985C15.1988 19.9985 14.7115 19.7866 14.3663 19.418L13.087 18.0266C10.63 17.9344 8.31507 16.9116 6.83274 15.253C6.59922 14.995 6.60938 14.6264 6.8429 14.3776L7.78712 13.3455C7.92926 13.1889 8.14247 13.0967 8.37599 13.0967C12.1529 13.0967 15.2292 10.5166 15.2292 7.33757C15.2292 6.49903 15.016 5.69733 14.5998 4.95094C14.4678 4.71135 14.4982 4.42571 14.681 4.21377C14.8637 4.00183 15.1683 3.90967 15.4526 3.96495C19.2092 4.7482 21.8287 7.59556 21.8287 10.8944C21.8287 13.1059 20.6611 15.1424 18.6305 16.5062L17.3512 19.0586C17.0872 19.5747 16.5694 19.9248 15.9501 19.9893C15.879 19.9985 15.7978 19.9985 15.7267 19.9985ZM8.4369 14.7922C9.70604 15.9625 11.5336 16.6444 13.4525 16.6444C13.6758 16.6444 13.8891 16.7365 14.0414 16.8932L15.544 18.5334C15.6151 18.6163 15.7064 18.6255 15.7674 18.6163C15.808 18.6163 15.9197 18.5887 15.9806 18.4781L17.3411 15.7598C17.402 15.6492 17.4832 15.5478 17.5949 15.4833C19.3209 14.3776 20.3159 12.7005 20.3159 10.8852C20.3159 8.67368 18.8234 6.71099 16.5491 5.74344C16.6913 6.25947 16.7623 6.78468 16.7623 7.32834C16.7623 11.1616 13.1987 14.3039 8.75165 14.4605L8.4369 14.7922Z" fill="#112378"/>
<path d="M10.9141 8.01892H5.83764C5.42137 8.01892 5.07617 7.70562 5.07617 7.32782C5.07617 6.95002 5.42137 6.63672 5.83764 6.63672H10.9141C11.3304 6.63672 11.6756 6.95002 11.6756 7.32782C11.6756 7.70562 11.3304 8.01892 10.9141 8.01892Z" fill="#112378"/>
</svg>
