<svg width="23" height="22" viewBox="0 0 23 22" fill="none" xmlns="http://www.w3.org/2000/svg">
<path d="M11.4898 14.887C9.27747 14.887 7.48193 13.0924 7.48193 10.881C7.48193 8.6697 9.27747 6.875 11.4898 6.875C13.7022 6.875 15.4977 8.6697 15.4977 10.881C15.4977 13.0924 13.7022 14.887 11.4898 14.887ZM11.4898 8.47741C10.1646 8.47741 9.08509 9.55637 9.08509 10.881C9.08509 12.2057 10.1646 13.2846 11.4898 13.2846C12.8151 13.2846 13.8946 12.2057 13.8946 10.881C13.8946 9.55637 12.8151 8.47741 11.4898 8.47741Z" fill="#2D2D2D"/>
<path d="M14.9201 21.769C14.6956 21.769 14.4712 21.737 14.2467 21.6836C13.5841 21.502 13.0283 21.0853 12.6757 20.4978L12.5474 20.2841C11.9168 19.1945 11.0511 19.1945 10.4205 20.2841L10.303 20.4871C9.95028 21.0853 9.39452 21.5127 8.73188 21.6836C8.05855 21.8652 7.36385 21.769 6.77602 21.4165L4.93773 20.3589C4.28578 19.985 3.81552 19.3761 3.61245 18.639C3.42007 17.9019 3.51626 17.1434 3.89033 16.4918C4.20028 15.947 4.28578 15.4555 4.10409 15.1457C3.9224 14.8359 3.46283 14.6543 2.83225 14.6543C1.27184 14.6543 0 13.3831 0 11.8234V9.94326C0 8.38358 1.27184 7.11233 2.83225 7.11233C3.46283 7.11233 3.9224 6.93073 4.10409 6.62093C4.28578 6.31113 4.21097 5.81972 3.89033 5.27491C3.51626 4.62326 3.42007 3.8541 3.61245 3.12768C3.80483 2.39057 4.27509 1.78165 4.93773 1.40776L6.78671 0.350166C7.99442 -0.365578 9.5869 0.0510489 10.3137 1.27956L10.4419 1.49322C11.0725 2.58286 11.9382 2.58286 12.5688 1.49322L12.6863 1.29025C13.4131 0.0510489 15.0056 -0.365578 16.224 0.360848L18.0623 1.41844C18.7142 1.79233 19.1845 2.40125 19.3875 3.13836C19.5799 3.87547 19.4837 4.63394 19.1097 5.28559C18.7997 5.83041 18.7142 6.32181 18.8959 6.63161C19.0776 6.94141 19.5372 7.12302 20.1678 7.12302C21.7282 7.12302 23 8.39426 23 9.95394V11.8341C23 13.3938 21.7282 14.665 20.1678 14.665C19.5372 14.665 19.0776 14.8466 18.8959 15.1564C18.7142 15.4662 18.789 15.9576 19.1097 16.5025C19.4837 17.1541 19.5906 17.9233 19.3875 18.6497C19.1952 19.3868 18.7249 19.9957 18.0623 20.3696L16.2133 21.4272C15.8072 21.6515 15.369 21.769 14.9201 21.769ZM11.4893 17.8164C12.4405 17.8164 13.3276 18.4147 13.9368 19.4723L14.0544 19.6752C14.1826 19.8996 14.3964 20.0598 14.6529 20.1239C14.9094 20.188 15.1659 20.1559 15.3796 20.0278L17.2286 18.9595C17.5065 18.7992 17.7203 18.5322 17.8058 18.2117C17.8913 17.8912 17.8485 17.56 17.6882 17.2823C17.079 16.2354 17.0042 15.1564 17.4744 14.3339C17.9447 13.5113 18.9173 13.0413 20.1357 13.0413C20.8197 13.0413 21.3648 12.4964 21.3648 11.8127V9.93258C21.3648 9.25956 20.8197 8.70406 20.1357 8.70406C18.9173 8.70406 17.9447 8.23402 17.4744 7.41145C17.0042 6.58888 17.079 5.50992 17.6882 4.46302C17.8485 4.18527 17.8913 3.8541 17.8058 3.53362C17.7203 3.21314 17.5172 2.95675 17.2393 2.78583L15.3903 1.72824C14.9308 1.45049 14.3216 1.61073 14.0437 2.08077L13.9261 2.28374C13.3169 3.34133 12.4298 3.93956 11.4786 3.93956C10.5274 3.93956 9.64034 3.34133 9.03113 2.28374L8.91357 2.07009C8.64638 1.62141 8.04786 1.46117 7.58829 1.72824L5.73931 2.79651C5.46143 2.95675 5.24768 3.22382 5.16217 3.5443C5.07667 3.86478 5.11942 4.19595 5.27974 4.4737C5.88894 5.52061 5.96375 6.59956 5.49349 7.42213C5.02323 8.2447 4.05065 8.71474 2.83225 8.71474C2.14823 8.71474 1.60316 9.25956 1.60316 9.94326V11.8234C1.60316 12.4964 2.14823 13.0519 2.83225 13.0519C4.05065 13.0519 5.02323 13.522 5.49349 14.3445C5.96375 15.1671 5.88894 16.2461 5.27974 17.293C5.11942 17.5707 5.07667 17.9019 5.16217 18.2224C5.24768 18.5429 5.45074 18.7992 5.72862 18.9702L7.5776 20.0278C7.80204 20.1666 8.06924 20.1987 8.31506 20.1346C8.57156 20.0705 8.78532 19.8996 8.92426 19.6752L9.04182 19.4723C9.65102 18.4253 10.5381 17.8164 11.4893 17.8164Z" fill="#2D2D2D"/>
</svg>
