<svg width="23" height="22" viewBox="0 0 23 22" fill="none" xmlns="http://www.w3.org/2000/svg">
<path d="M11.4896 14.8862C9.27723 14.8862 7.48169 13.0915 7.48169 10.8801C7.48169 8.66881 9.27723 6.87411 11.4896 6.87411C13.7019 6.87411 15.4975 8.66881 15.4975 10.8801C15.4975 13.0915 13.7019 14.8862 11.4896 14.8862ZM11.4896 8.47652C10.1643 8.47652 9.08485 9.55548 9.08485 10.8801C9.08485 12.2048 10.1643 13.2838 11.4896 13.2838C12.8149 13.2838 13.8943 12.2048 13.8943 10.8801C13.8943 9.55548 12.8149 8.47652 11.4896 8.47652Z" fill="#112378"/>
<path d="M14.9201 21.7682C14.6956 21.7682 14.4712 21.7361 14.2467 21.6827C13.5841 21.5011 13.0283 21.0845 12.6757 20.4969L12.5474 20.2833C11.9168 19.1936 11.0511 19.1936 10.4205 20.2833L10.303 20.4862C9.95028 21.0845 9.39452 21.5118 8.73188 21.6827C8.05855 21.8643 7.36385 21.7682 6.77602 21.4156L4.93773 20.358C4.28578 19.9841 3.81552 19.3752 3.61245 18.6381C3.42007 17.901 3.51626 17.1425 3.89033 16.4909C4.20028 15.9461 4.28578 15.4547 4.10409 15.1449C3.9224 14.8351 3.46283 14.6535 2.83225 14.6535C1.27184 14.6535 0 13.3822 0 11.8225V9.94237C0 8.38269 1.27184 7.11145 2.83225 7.11145C3.46283 7.11145 3.9224 6.92984 4.10409 6.62004C4.28578 6.31024 4.21097 5.81884 3.89033 5.27402C3.51626 4.62237 3.42007 3.85322 3.61245 3.12679C3.80483 2.38968 4.27509 1.78077 4.93773 1.40687L6.78671 0.34928C7.99442 -0.366463 9.5869 0.0501639 10.3137 1.27868L10.4419 1.49233C11.0725 2.58197 11.9382 2.58197 12.5688 1.49233L12.6863 1.28936C13.4131 0.0501639 15.0056 -0.366463 16.224 0.359963L18.0623 1.41755C18.7142 1.79145 19.1845 2.40037 19.3875 3.13747C19.5799 3.87458 19.4837 4.63306 19.1097 5.2847C18.7997 5.82952 18.7142 6.32093 18.8959 6.63073C19.0776 6.94053 19.5372 7.12213 20.1678 7.12213C21.7282 7.12213 23 8.39338 23 9.95306V11.8332C23 13.3929 21.7282 14.6641 20.1678 14.6641C19.5372 14.6641 19.0776 14.8457 18.8959 15.1555C18.7142 15.4653 18.789 15.9568 19.1097 16.5016C19.4837 17.1532 19.5906 17.9224 19.3875 18.6488C19.1952 19.3859 18.7249 19.9948 18.0623 20.3687L16.2133 21.4263C15.8072 21.6506 15.369 21.7682 14.9201 21.7682ZM11.4893 17.8155C12.4405 17.8155 13.3276 18.4138 13.9368 19.4714L14.0544 19.6743C14.1826 19.8987 14.3964 20.0589 14.6529 20.123C14.9094 20.1871 15.1659 20.1551 15.3796 20.0269L17.2286 18.9586C17.5065 18.7984 17.7203 18.5313 17.8058 18.2108C17.8913 17.8903 17.8485 17.5592 17.6882 17.2814C17.079 16.2345 17.0042 15.1555 17.4744 14.333C17.9447 13.5104 18.9173 13.0404 20.1357 13.0404C20.8197 13.0404 21.3648 12.4955 21.3648 11.8119V9.93169C21.3648 9.25868 20.8197 8.70318 20.1357 8.70318C18.9173 8.70318 17.9447 8.23314 17.4744 7.41057C17.0042 6.588 17.079 5.50904 17.6882 4.46213C17.8485 4.18438 17.8913 3.85322 17.8058 3.53273C17.7203 3.21225 17.5172 2.95587 17.2393 2.78494L15.3903 1.72735C14.9308 1.4496 14.3216 1.60984 14.0437 2.07988L13.9261 2.28285C13.3169 3.34045 12.4298 3.93868 11.4786 3.93868C10.5274 3.93868 9.64033 3.34045 9.03113 2.28285L8.91357 2.0692C8.64638 1.62053 8.04786 1.46028 7.58829 1.72735L5.73931 2.79563C5.46143 2.95587 5.24768 3.22294 5.16217 3.54342C5.07667 3.8639 5.11942 4.19506 5.27974 4.47282C5.88894 5.51972 5.96375 6.59868 5.49349 7.42125C5.02323 8.24382 4.05065 8.71386 2.83225 8.71386C2.14823 8.71386 1.60316 9.25868 1.60316 9.94237V11.8225C1.60316 12.4955 2.14823 13.051 2.83225 13.051C4.05065 13.051 5.02323 13.5211 5.49349 14.3437C5.96375 15.1662 5.88894 16.2452 5.27974 17.2921C5.11942 17.5698 5.07667 17.901 5.16217 18.2215C5.24768 18.542 5.45074 18.7984 5.72862 18.9693L7.5776 20.0269C7.80205 20.1657 8.06924 20.1978 8.31506 20.1337C8.57156 20.0696 8.78532 19.8987 8.92426 19.6743L9.04182 19.4714C9.65102 18.4245 10.5381 17.8155 11.4893 17.8155Z" fill="#112378"/>
</svg>
