<svg width="64" height="64" viewBox="0 0 64 64" fill="none" xmlns="http://www.w3.org/2000/svg">
<path fill-rule="evenodd" clip-rule="evenodd" d="M22.854 22.0475C22.4453 22.8497 22.4453 23.8998 22.4453 26V39C22.4453 41.1002 22.4453 42.1503 22.854 42.9525C23.2136 43.6581 23.7872 44.2317 24.4928 44.5913C25.295 45 26.3451 45 28.4453 45H36.4453C38.5455 45 39.5956 45 40.3978 44.5913C41.1034 44.2317 41.6771 43.6581 42.0366 42.9525C42.4453 42.1503 42.4453 41.1002 42.4453 39V28.25H36.9453C35.4265 28.25 34.1953 27.0188 34.1953 25.5V20H28.4453C26.3451 20 25.295 20 24.4928 20.4087C23.7872 20.7683 23.2136 21.3419 22.854 22.0475ZM35.6953 20.75V25.5C35.6953 26.1904 36.255 26.75 36.9453 26.75H41.6953L35.6953 20.75ZM27.4453 34C26.893 34 26.4453 34.4477 26.4453 35C26.4453 35.5523 26.893 36 27.4453 36H35.4453C35.9976 36 36.4453 35.5523 36.4453 35C36.4453 34.4477 35.9976 34 35.4453 34H27.4453ZM26.4453 40C26.4453 39.4477 26.893 39 27.4453 39H37.4453C37.9976 39 38.4453 39.4477 38.4453 40C38.4453 40.5523 37.9976 41 37.4453 41H27.4453C26.893 41 26.4453 40.5523 26.4453 40Z" fill="#F9F9F9"/>
</svg>
