<svg width="78" height="78" viewBox="0 0 78 78" fill="none" xmlns="http://www.w3.org/2000/svg">
<path d="M26.9 39.6742V35.1372C26.9 34.5849 27.3477 34.1372 27.9 34.1372H33.2245C33.2631 34.1372 33.3014 34.1297 33.3372 34.1152L47.8557 28.2265C48.7503 27.8636 49.6939 28.2415 49.907 29.1831C50.2198 30.5654 50.5907 33.048 50.75 37.3501C50.923 42.0211 50.4476 44.5841 50.014 45.9171C49.7477 46.736 48.8723 46.9684 48.0901 46.6084L35.701 40.9058C35.4846 40.8062 35.244 40.9865 35.2788 41.2221L36.2956 48.1079C36.4739 49.3157 35.5379 50.4001 34.317 50.4001H33.5454C32.5658 50.4001 31.7304 49.6906 31.5718 48.7239L30.2923 40.9257C30.2686 40.7807 30.1432 40.6742 29.9963 40.6742H27.9C27.3477 40.6742 26.9 40.2265 26.9 39.6742Z" fill="#F9F9F9"/>
</svg>
