<svg width="78" height="78" viewBox="0 0 78 78" fill="none" xmlns="http://www.w3.org/2000/svg">
<path fill-rule="evenodd" clip-rule="evenodd" d="M42.2084 29.2678C42.2084 27.3692 40.7536 25.8301 38.959 25.8301C37.1644 25.8301 35.7096 27.3692 35.7096 29.2678H35.7914C34.9409 29.6198 34.1581 30.1122 33.4855 30.7289C32.023 32.0698 31.2014 33.8886 31.2014 35.785C31.2014 38.9226 30.4659 41.2173 29.5482 42.8593C29.1469 43.5772 28.8256 43.9904 28.5819 44.3036C28.1905 44.8069 27.9995 45.0524 27.9999 45.8899C28.0235 46.1457 28.067 46.2264 28.263 46.378C28.4344 46.5106 29.2767 46.5106 30.9612 46.5106H30.9613H31.017H35.0085H38.9999H42.9914H46.9828C47.2375 46.5106 47.4724 46.5113 47.6886 46.5119H47.6894H47.6902C48.9346 46.5155 49.5568 46.5173 49.7368 46.378C49.9328 46.2264 49.9763 46.1457 50 45.8899C50.0004 45.0524 49.8094 44.8069 49.4179 44.3036L49.4179 44.3036L49.4179 44.3036C49.1743 43.9903 48.8529 43.5772 48.4517 42.8593C47.534 41.2173 46.7985 38.9226 46.7985 35.785C46.7985 33.8886 45.9769 32.0698 44.5143 30.7289C43.8418 30.1122 43.059 29.6198 42.2084 29.2678H42.2084ZM42.3877 49.2891C42.572 48.8442 42.6668 48.3674 42.6668 47.8858H38.9999H35.3331C35.3331 48.3674 35.4279 48.8442 35.6122 49.2891C35.7965 49.734 36.0666 50.1382 36.4071 50.4787C36.7476 50.8192 37.1518 51.0893 37.5967 51.2736C38.0416 51.4579 38.5184 51.5527 38.9999 51.5527C39.4815 51.5527 39.9583 51.4579 40.4032 51.2736C40.8481 51.0893 41.2523 50.8192 41.5928 50.4787C41.9333 50.1382 42.2034 49.734 42.3877 49.2891Z" fill="#F9F9F9"/>
</svg>
