<svg width="78" height="78" viewBox="0 0 78 78" fill="none" xmlns="http://www.w3.org/2000/svg">
<path fill-rule="evenodd" clip-rule="evenodd" d="M35.7301 50.2179L35.5108 48.8365C35.4107 48.2056 34.9714 47.6879 34.4066 47.3894C34.31 47.3383 34.2122 47.2845 34.1134 47.2281C34.0297 47.1803 33.948 47.1321 33.8682 47.0835C33.2949 46.7345 32.5845 46.6328 31.9742 46.9121L30.7979 47.4504C29.9655 47.8313 28.98 47.5125 28.5285 46.7162L27.2297 44.426C26.7879 43.6467 26.9999 42.66 27.7229 42.1311L29.2744 40.9963C29.5876 40.7672 29.7295 40.3737 29.7126 39.9862C29.7023 39.7494 29.6972 39.5384 29.6972 39.3531C29.6972 39.1678 29.7023 38.9567 29.7126 38.72C29.7295 38.3324 29.5876 37.9389 29.2744 37.7099L27.7229 36.575C26.9999 36.0461 26.7879 35.0594 27.2297 34.2802L28.5285 31.9899C28.98 31.1936 29.9655 30.8748 30.7979 31.2558L31.9742 31.7941C32.5845 32.0734 33.2949 31.9716 33.8682 31.6226C33.948 31.574 34.0297 31.5259 34.1134 31.4781C34.1913 31.4335 34.2686 31.391 34.3452 31.3505C34.9369 31.0374 35.4145 30.5042 35.5186 29.8429L35.7316 28.4903C35.8668 27.6322 36.6062 27.0001 37.4749 27.0001H40.142C41.0098 27.0001 41.7488 27.6311 41.8849 28.4882L42.1042 29.8697C42.2043 30.5006 42.6422 31.0199 43.2136 31.3055C43.3134 31.3554 43.4145 31.4078 43.5171 31.4626C43.5757 31.494 43.6332 31.5259 43.6896 31.5581C44.3099 31.9138 45.0686 32.0559 45.7188 31.7584L46.8171 31.2558C47.6495 30.8748 48.635 31.1936 49.0865 31.9899L50.3757 34.2633C50.8216 35.0497 50.6012 36.0459 49.8651 36.5707L48.37 37.6367C48.0384 37.8731 47.8847 38.2823 47.9023 38.6891C47.9126 38.9259 47.9178 39.1472 47.9178 39.3531C47.9178 39.5589 47.9126 39.7751 47.9023 40.0016C47.8843 40.3994 48.0323 40.7997 48.3551 41.0329L49.8787 42.1332C50.6082 42.6601 50.8244 43.6515 50.3805 44.4343L49.0865 46.7162C48.635 47.5125 47.6495 47.8313 46.8171 47.4504L45.6408 46.9121C45.0305 46.6328 44.3195 46.7326 43.7546 47.095C43.6771 47.1447 43.5979 47.1942 43.5171 47.2435C43.4391 47.2911 43.3613 47.3363 43.2836 47.3793C42.6906 47.7076 42.1988 48.2404 42.0925 48.9099L41.8849 50.2179C41.7488 51.075 41.0098 51.706 40.142 51.706H37.473C36.6052 51.706 35.8662 51.075 35.7301 50.2179ZM38.8075 43.3266C37.7109 43.3266 36.775 42.939 35.9998 42.1638C35.2245 41.3886 34.8369 40.4526 34.8369 39.356C34.8369 38.2593 35.2245 37.3234 35.9998 36.5482C36.775 35.773 37.7109 35.3854 38.8075 35.3854C39.9042 35.3854 40.8401 35.773 41.6153 36.5482C42.3905 37.3234 42.7781 38.2593 42.7781 39.356C42.7781 40.4526 42.3905 41.3886 41.6153 42.1638C40.8401 42.939 39.9042 43.3266 38.8075 43.3266Z" fill="#F9F9F9"/>
</svg>
