<svg width="78" height="78" viewBox="0 0 78 78" fill="none" xmlns="http://www.w3.org/2000/svg">
<path fill-rule="evenodd" clip-rule="evenodd" d="M38.3511 25.0195C38.4017 24.9935 38.4617 24.9935 38.5122 25.0195L52.0155 31.9585C52.1431 32.024 52.1431 32.2064 52.0155 32.272L38.5122 39.211C38.4617 39.237 38.4017 39.237 38.3511 39.211L24.8479 32.272C24.7203 32.2064 24.7203 32.024 24.8479 31.9585L38.3511 25.0195ZM28.7697 37.8678C28.0921 37.5276 27.2937 37.5276 26.6161 37.8678L24.6519 38.8539C24.5223 38.9189 24.5223 39.1039 24.6519 39.1689L38.4755 46.1088C38.5253 46.1338 38.5839 46.1338 38.6337 46.1089L52.4574 39.1689C52.5869 39.1039 52.5869 38.9189 52.4574 38.8539L50.4931 37.8678C49.8156 37.5276 49.0171 37.5276 48.3395 37.8678L38.6337 42.7404C38.5839 42.7654 38.5253 42.7654 38.4755 42.7404L28.7697 37.8678ZM24.771 45.7292L26.6464 44.7655C27.3349 44.4117 28.1518 44.4117 28.8403 44.7655L38.2742 49.6133C38.3248 49.6393 38.3848 49.6393 38.4354 49.6133L47.8693 44.7655C48.5578 44.4117 49.3746 44.4117 50.0631 44.7655L51.9386 45.7292C52.0662 45.7948 52.0662 45.9772 51.9386 46.0427L38.4354 52.9817C38.3848 53.0077 38.3248 53.0077 38.2742 52.9817L24.771 46.0427C24.6434 45.9772 24.6434 45.7948 24.771 45.7292Z" fill="#F9F9F9"/>
</svg>
