<svg width="310" height="141" viewBox="0 0 310 141" fill="none" xmlns="http://www.w3.org/2000/svg">
<path fill-rule="evenodd" clip-rule="evenodd" d="M151.85 124.013C199.549 123.289 246.718 111.905 259.571 90.4339C271.262 70.9031 236.937 53.8206 200.442 42.8384C170.829 33.9274 134.979 35.3328 104.886 43.8856C61.8212 56.1253 6.88565 71.3532 20.198 94.0663C34.4489 118.381 97.9156 124.831 151.85 124.013Z" fill="#FCCD97"/>
<path d="M297.601 51.4234C305.319 46.0761 310.366 39.2433 308.881 30.034C307.694 21.9535 300.273 18.1509 295.523 17.5567C290.773 16.9626 269.4 17.5567 269.4 17.5567L208.544 17.5567C208.05 12.7045 205.635 3 199.936 3C194.236 3 192.415 12.7045 192.217 17.5567L190.436 17.5567C190.139 13.0015 187.943 3.83179 181.531 3.59413C175.118 3.35647 173.515 12.8035 173.515 17.5567C160.157 17.5567 125.009 18.6856 91.2867 23.2012C49.1333 28.8456 -14.8994 57.0679 4.60499 102.223C24.4943 148.27 77.9282 137.873 91.2867 125.692C101.973 115.948 107.02 103.808 108.207 98.9556C89.2087 115.592 42.2462 121.058 37.259 98.9556C35.8341 71.199 149.866 64.8126 207.06 65.0889C227.642 64.4948 268.212 62.9352 275.04 61.2269C281.867 59.5187 289.883 56.7708 297.601 51.4234Z" fill="#112378"/>
<path d="M63.7058 76.5486V82.4099C63.7058 82.8994 64.1026 83.2962 64.5921 83.2962H69.7741" stroke="#112378" stroke-width="1.77257" stroke-linecap="round"/>
<path d="M75.1681 76.5486V82.4099C75.1681 82.8994 75.5649 83.2962 76.0544 83.2962H81.2364" stroke="#112378" stroke-width="1.77257" stroke-linecap="round"/>
<path d="M179.004 65.7524V71.6137C179.004 72.1032 179.4 72.5 179.89 72.5H184.398" stroke="#112378" stroke-width="1.77257" stroke-linecap="round"/>
<path d="M190.466 65.7524V71.6137C190.466 72.1032 190.863 72.5 191.352 72.5H195.86" stroke="#112378" stroke-width="1.77257" stroke-linecap="round"/>
<ellipse cx="181.827" cy="13.9918" rx="2.96855" ry="2.97076" fill="#F9F9F9"/>
<ellipse cx="183.011" cy="14.0121" rx="1.01139" ry="1.01214" fill="black"/>
<ellipse cx="200.232" cy="13.3976" rx="2.96855" ry="2.97076" fill="#F9F9F9"/>
<ellipse cx="201.27" cy="13.5121" rx="1.01138" ry="1.01214" fill="black"/>
<path d="M191.921 34.7872C208.544 43.1053 229.027 49.3439 264.495 45.3643C281.277 43.4813 301.106 40.3177 308.881 38.5203" stroke="#F9F9F9" stroke-width="0.886287"/>
<path d="M202.607 44.8877V40.1345L206.17 41.0852L202.607 44.8877Z" fill="#F9F9F9" stroke="#F9F9F9" stroke-width="0.443144"/>
<path d="M213.591 43.1053L209.138 41.917V46.0761L213.591 43.1053Z" fill="#F9F9F9" stroke="#F9F9F9" stroke-width="0.443144"/>
<path d="M279.196 46.3731L277.118 43.6994H279.196V46.3731Z" fill="#F9F9F9" stroke="#F9F9F9" stroke-width="0.443144"/>
</svg>
