<svg width="392" height="173" viewBox="0 0 392 173" fill="none" xmlns="http://www.w3.org/2000/svg">
<path fill-rule="evenodd" clip-rule="evenodd" d="M178.843 151.301C238.375 150.399 297.247 136.208 313.289 109.443C327.881 85.0959 285.039 63.8013 239.49 50.1111C202.531 39.0028 157.786 40.7548 120.228 51.4165C66.4786 66.6742 -2.08616 85.657 14.5289 113.971C32.3154 144.28 111.528 152.322 178.843 151.301Z" fill="#FCCD97"/>
<path fill-rule="evenodd" clip-rule="evenodd" d="M343.985 105.851C349.799 104.397 356.292 102.351 362.894 99.1151L263.762 51.5576L374.89 7.42769C371.45 4.48263 366.124 1.40475 362.894 1.001C356.858 0.246453 346.613 2.28629 332.903 4.75458C319.192 7.22286 263.762 22.486 263.762 22.486C263.133 16.3241 260.065 4.00008 252.821 4.00008C245.578 4.00008 243.264 16.3241 243.013 22.486L240.749 22.486C240.372 16.7013 237.58 5.05639 229.431 4.75458C221.282 4.45277 219.245 16.4498 219.245 22.486C202.268 22.486 157.6 23.9196 114.743 29.6541C61.1712 36.8221 -20.206 72.6622 4.58147 130.006C29.8582 188.482 97.7658 175.278 114.743 159.81C128.324 147.436 134.738 132.019 136.247 125.857C112.102 146.983 52.4186 153.925 46.0806 125.857C44.2697 90.6077 189.19 82.4974 261.876 82.8484C288.033 82.0939 335.308 108.02 343.985 105.851Z" fill="#112378"/>
<path d="M79.6909 97.4014V104.257C79.6909 105.203 80.4582 105.97 81.4047 105.97H87.4029" stroke="#112378" stroke-width="3.42757" stroke-linecap="round"/>
<path d="M94.2582 97.4014V104.257C94.2582 105.203 95.0255 105.97 95.972 105.97H101.97" stroke="#112378" stroke-width="3.42757" stroke-linecap="round"/>
<path d="M226.219 83.6909V90.5461C226.219 91.4926 226.987 92.2598 227.933 92.2598H233.075" stroke="#112378" stroke-width="3.42757" stroke-linecap="round"/>
<path d="M240.787 83.6909V90.5461C240.787 91.4926 241.554 92.2598 242.501 92.2598H247.642" stroke="#112378" stroke-width="3.42757" stroke-linecap="round"/>
<circle cx="229.808" cy="17.9587" r="3.77264" fill="#FFFEFE"/>
<circle cx="229.818" cy="18.9958" r="1.28534" fill="black"/>
<circle cx="253.199" cy="17.2043" r="3.77264" fill="#FFFEFE"/>
<circle cx="253.212" cy="18.653" r="1.28534" fill="black"/>
</svg>
