<svg width="21" height="16" viewBox="0 0 21 16" fill="none" xmlns="http://www.w3.org/2000/svg">
<path d="M17.4308 1.74342C16.1561 1.1679 14.7891 0.743876 13.3599 0.501018C13.3339 0.496333 13.3079 0.508046 13.2945 0.531473C13.1187 0.839144 12.924 1.24052 12.7876 1.556C11.2503 1.32954 9.72097 1.32954 8.21526 1.556C8.07888 1.23349 7.87707 0.839144 7.70048 0.531473C7.68708 0.508827 7.66107 0.497114 7.63505 0.501018C6.2066 0.743095 4.83963 1.16712 3.56411 1.74342C3.55308 1.7481 3.54362 1.75591 3.53731 1.76606C0.944494 5.5776 0.234208 9.29542 0.58265 12.9672C0.584227 12.9851 0.594475 13.0023 0.608665 13.0133C2.31934 14.2494 3.97641 14.9998 5.60274 15.4973C5.62875 15.5051 5.65634 15.4957 5.6729 15.4746C6.0576 14.9577 6.40053 14.4126 6.69457 13.8394C6.71192 13.8059 6.69536 13.766 6.65989 13.7528C6.11594 13.5497 5.59801 13.3022 5.09978 13.0211C5.06037 12.9984 5.05721 12.943 5.09348 12.9164C5.19832 12.8391 5.30317 12.7587 5.40329 12.6775C5.42142 12.6626 5.44665 12.6595 5.46793 12.6689C8.74108 14.1393 12.2846 14.1393 15.5191 12.6689C15.5404 12.6587 15.5657 12.6618 15.5846 12.6767C15.6847 12.7579 15.7895 12.8391 15.8952 12.9164C15.9314 12.943 15.9291 12.9984 15.8897 13.0211C15.3914 13.3076 14.8735 13.5497 14.3288 13.752C14.2933 13.7653 14.2775 13.8059 14.2949 13.8394C14.5952 14.4118 14.9381 14.9569 15.3158 15.4738C15.3315 15.4957 15.3599 15.5051 15.3859 15.4973C17.0201 14.9998 18.6772 14.2494 20.3879 13.0133C20.4028 13.0023 20.4123 12.9859 20.4139 12.968C20.8309 8.72303 19.7154 5.03566 17.4569 1.76684C17.4513 1.75591 17.4419 1.7481 17.4308 1.74342ZM7.18334 10.7315C6.19793 10.7315 5.38595 9.84127 5.38595 8.74802C5.38595 7.65477 6.18216 6.76455 7.18334 6.76455C8.1924 6.76455 8.9965 7.66258 8.98073 8.74802C8.98073 9.84127 8.18452 10.7315 7.18334 10.7315ZM13.829 10.7315C12.8435 10.7315 12.0316 9.84127 12.0316 8.74802C12.0316 7.65477 12.8278 6.76455 13.829 6.76455C14.838 6.76455 15.6421 7.66258 15.6264 8.74802C15.6264 9.84127 14.838 10.7315 13.829 10.7315Z" fill="#112378"/>
</svg>
