<svg width="40" height="40" viewBox="0 0 40 40" fill="none" xmlns="http://www.w3.org/2000/svg">
<g clip-path="url(#clip0_701_1226)">
<rect width="40" height="40" rx="20" fill="#112378"/>
<path fill-rule="evenodd" clip-rule="evenodd" d="M20 31.8569C20.0225 31.8569 20.0451 31.8515 20.0656 31.8407L31.0618 26.0677C31.1625 26.0148 31.1625 25.8705 31.0618 25.8176L29.2132 24.8471C29.1721 24.8255 29.123 24.8255 29.0819 24.8471L20.0656 29.5807C20.0451 29.5914 20.0225 29.5968 20 29.5968V31.8569Z" fill="#FCCD97"/>
<path fill-rule="evenodd" clip-rule="evenodd" d="M20 26.2434C20.0225 26.2434 20.0451 26.238 20.0656 26.2273L31.0618 20.4543C31.1625 20.4014 31.1625 20.2571 31.0618 20.2042L29.2133 19.2337C29.1722 19.2121 29.1231 19.2121 29.082 19.2337L20.0656 23.9673C20.0451 23.9781 20.0225 23.9835 20 23.9835V26.2434Z" fill="#FCCD97"/>
<path d="M19.9343 8.23442C19.9754 8.21284 20.0245 8.21284 20.0656 8.23442L31.0617 14.0074C31.1625 14.0603 31.1625 14.2046 31.0617 14.2575L20.0656 20.0305C20.0245 20.0521 19.9754 20.0521 19.9343 20.0305L8.93817 14.2575C8.83738 14.2046 8.83738 14.0603 8.93817 14.0074L19.9343 8.23442Z" fill="#FCCD97"/>
</g>
<defs>
<clipPath id="clip0_701_1226">
<rect width="40" height="40" fill="white"/>
</clipPath>
</defs>
</svg>
