<svg width="16" height="18" viewBox="0 0 16 18" fill="none" xmlns="http://www.w3.org/2000/svg">
<path fill-rule="evenodd" clip-rule="evenodd" d="M8 17.3714C8.02253 17.3714 8.04506 17.366 8.0656 17.3552L15.7617 13.3147C15.8625 13.2618 15.8625 13.1175 15.7617 13.0646L14.5418 12.4241C14.5007 12.4026 14.4516 12.4026 14.4105 12.4241L8.0656 15.7552C8.04506 15.766 8.02253 15.7714 8 15.7714V17.3714Z" fill="#FCCD97"/>
<path fill-rule="evenodd" clip-rule="evenodd" d="M8 13.3973C8.02253 13.3973 8.04506 13.3919 8.0656 13.3811L15.7617 9.34061C15.8625 9.2877 15.8625 9.1434 15.7617 9.09049L14.5418 8.45003C14.5007 8.42844 14.4516 8.42844 14.4105 8.45003L8.0656 11.7811C8.04506 11.7919 8.02253 11.7973 8 11.7973V13.3973Z" fill="#FCCD97"/>
<path d="M7.93434 0.66301C7.97545 0.641427 8.02454 0.641427 8.06565 0.66301L15.7618 4.70348C15.8626 4.75639 15.8626 4.90069 15.7618 4.9536L8.06565 8.99407C8.02454 9.01565 7.97545 9.01565 7.93434 8.99407L0.238214 4.9536C0.137424 4.90069 0.137425 4.75639 0.238214 4.70348L7.93434 0.66301Z" fill="#FCCD97"/>
</svg>
