<svg width="556" height="426" viewBox="0 0 556 426" fill="none" xmlns="http://www.w3.org/2000/svg">
<rect y="233" width="166" height="83" rx="4" fill="#BDC5E9"/>
<path d="M81.288 295.176V291.48C78.152 291.128 75.672 290.008 73.848 288.12C72.024 286.232 71.112 283.832 71.112 280.92H75.336C75.336 282.616 75.832 284.136 76.824 285.48C77.848 286.792 79.336 287.64 81.288 288.024V275.016C81.064 274.952 80.824 274.888 80.568 274.824C80.344 274.728 80.12 274.648 79.896 274.584C77.304 273.688 75.384 272.584 74.136 271.272C72.888 269.928 72.264 268.184 72.264 266.04C72.232 263.544 73.016 261.464 74.616 259.8C76.248 258.136 78.472 257.176 81.288 256.92V253.032H84.6V256.92C87.288 257.24 89.432 258.248 91.032 259.944C92.632 261.64 93.448 263.704 93.48 266.136H89.256C89.256 264.952 88.872 263.816 88.104 262.728C87.336 261.608 86.168 260.856 84.6 260.472V272.088C84.856 272.152 85.112 272.232 85.368 272.328C85.624 272.424 85.896 272.504 86.184 272.568C87.784 273.144 89.224 273.816 90.504 274.584C91.784 275.352 92.776 276.344 93.48 277.56C94.216 278.776 94.584 280.328 94.584 282.216C94.584 283.72 94.216 285.144 93.48 286.488C92.744 287.832 91.624 288.968 90.12 289.896C88.648 290.824 86.808 291.368 84.6 291.528V295.176H81.288ZM76.44 265.656C76.44 267.128 76.872 268.248 77.736 269.016C78.6 269.752 79.784 270.392 81.288 270.936V260.376C79.848 260.6 78.68 261.176 77.784 262.104C76.888 263 76.44 264.184 76.44 265.656ZM90.408 282.456C90.408 280.6 89.864 279.224 88.776 278.328C87.688 277.432 86.296 276.696 84.6 276.12V288.12C86.456 287.896 87.88 287.256 88.872 286.2C89.896 285.144 90.408 283.896 90.408 282.456Z" fill="#112378"/>
<rect x="216" y="191" width="166" height="83" rx="4" fill="#BDC5E9"/>
<path d="M297.288 253.176V249.48C294.152 249.128 291.672 248.008 289.848 246.12C288.024 244.232 287.112 241.832 287.112 238.92H291.336C291.336 240.616 291.832 242.136 292.824 243.48C293.848 244.792 295.336 245.64 297.288 246.024V233.016C297.064 232.952 296.824 232.888 296.568 232.824C296.344 232.728 296.12 232.648 295.896 232.584C293.304 231.688 291.384 230.584 290.136 229.272C288.888 227.928 288.264 226.184 288.264 224.04C288.232 221.544 289.016 219.464 290.616 217.8C292.248 216.136 294.472 215.176 297.288 214.92V211.032H300.6V214.92C303.288 215.24 305.432 216.248 307.032 217.944C308.632 219.64 309.448 221.704 309.48 224.136H305.256C305.256 222.952 304.872 221.816 304.104 220.728C303.336 219.608 302.168 218.856 300.6 218.472V230.088C300.856 230.152 301.112 230.232 301.368 230.328C301.624 230.424 301.896 230.504 302.184 230.568C303.784 231.144 305.224 231.816 306.504 232.584C307.784 233.352 308.776 234.344 309.48 235.56C310.216 236.776 310.584 238.328 310.584 240.216C310.584 241.72 310.216 243.144 309.48 244.488C308.744 245.832 307.624 246.968 306.12 247.896C304.648 248.824 302.808 249.368 300.6 249.528V253.176H297.288ZM292.44 223.656C292.44 225.128 292.872 226.248 293.736 227.016C294.6 227.752 295.784 228.392 297.288 228.936V218.376C295.848 218.6 294.68 219.176 293.784 220.104C292.888 221 292.44 222.184 292.44 223.656ZM306.408 240.456C306.408 238.6 305.864 237.224 304.776 236.328C303.688 235.432 302.296 234.696 300.6 234.12V246.12C302.456 245.896 303.88 245.256 304.872 244.2C305.896 243.144 306.408 241.896 306.408 240.456Z" fill="#112378"/>
<path fill-rule="evenodd" clip-rule="evenodd" d="M285 371.13C283.099 371.696 281.085 372 279 372C267.402 372 258 362.598 258 351C258 348.167 258.561 345.466 259.578 343H123C120.791 343 119 344.791 119 347V422C119 424.209 120.791 426 123 426H281C283.209 426 285 424.209 285 422V371.13Z" fill="#BDC5E9"/>
<path d="M200.288 405.176V401.48C197.152 401.128 194.672 400.008 192.848 398.12C191.024 396.232 190.112 393.832 190.112 390.92H194.336C194.336 392.616 194.832 394.136 195.824 395.48C196.848 396.792 198.336 397.64 200.288 398.024V385.016C200.064 384.952 199.824 384.888 199.568 384.824C199.344 384.728 199.12 384.648 198.896 384.584C196.304 383.688 194.384 382.584 193.136 381.272C191.888 379.928 191.264 378.184 191.264 376.04C191.232 373.544 192.016 371.464 193.616 369.8C195.248 368.136 197.472 367.176 200.288 366.92V363.032H203.6V366.92C206.288 367.24 208.432 368.248 210.032 369.944C211.632 371.64 212.448 373.704 212.48 376.136H208.256C208.256 374.952 207.872 373.816 207.104 372.728C206.336 371.608 205.168 370.856 203.6 370.472V382.088C203.856 382.152 204.112 382.232 204.368 382.328C204.624 382.424 204.896 382.504 205.184 382.568C206.784 383.144 208.224 383.816 209.504 384.584C210.784 385.352 211.776 386.344 212.48 387.56C213.216 388.776 213.584 390.328 213.584 392.216C213.584 393.72 213.216 395.144 212.48 396.488C211.744 397.832 210.624 398.968 209.12 399.896C207.648 400.824 205.808 401.368 203.6 401.528V405.176H200.288ZM195.44 375.656C195.44 377.128 195.872 378.248 196.736 379.016C197.6 379.752 198.784 380.392 200.288 380.936V370.376C198.848 370.6 197.68 371.176 196.784 372.104C195.888 373 195.44 374.184 195.44 375.656ZM209.408 392.456C209.408 390.6 208.864 389.224 207.776 388.328C206.688 387.432 205.296 386.696 203.6 386.12V398.12C205.456 397.896 206.88 397.256 207.872 396.2C208.896 395.144 209.408 393.896 209.408 392.456Z" fill="#112378"/>
<rect x="319" y="302" width="166" height="83" rx="4" fill="#BDC5E9"/>
<path d="M400.288 364.176V360.48C397.152 360.128 394.672 359.008 392.848 357.12C391.024 355.232 390.112 352.832 390.112 349.92H394.336C394.336 351.616 394.832 353.136 395.824 354.48C396.848 355.792 398.336 356.64 400.288 357.024V344.016C400.064 343.952 399.824 343.888 399.568 343.824C399.344 343.728 399.12 343.648 398.896 343.584C396.304 342.688 394.384 341.584 393.136 340.272C391.888 338.928 391.264 337.184 391.264 335.04C391.232 332.544 392.016 330.464 393.616 328.8C395.248 327.136 397.472 326.176 400.288 325.92V322.032H403.6V325.92C406.288 326.24 408.432 327.248 410.032 328.944C411.632 330.64 412.448 332.704 412.48 335.136H408.256C408.256 333.952 407.872 332.816 407.104 331.728C406.336 330.608 405.168 329.856 403.6 329.472V341.088C403.856 341.152 404.112 341.232 404.368 341.328C404.624 341.424 404.896 341.504 405.184 341.568C406.784 342.144 408.224 342.816 409.504 343.584C410.784 344.352 411.776 345.344 412.48 346.56C413.216 347.776 413.584 349.328 413.584 351.216C413.584 352.72 413.216 354.144 412.48 355.488C411.744 356.832 410.624 357.968 409.12 358.896C407.648 359.824 405.808 360.368 403.6 360.528V364.176H400.288ZM395.44 334.656C395.44 336.128 395.872 337.248 396.736 338.016C397.6 338.752 398.784 339.392 400.288 339.936V329.376C398.848 329.6 397.68 330.176 396.784 331.104C395.888 332 395.44 333.184 395.44 334.656ZM409.408 351.456C409.408 349.6 408.864 348.224 407.776 347.328C406.688 346.432 405.296 345.696 403.6 345.12V357.12C405.456 356.896 406.88 356.256 407.872 355.2C408.896 354.144 409.408 352.896 409.408 351.456Z" fill="#112378"/>
<path fill-rule="evenodd" clip-rule="evenodd" d="M212.107 135.5C203.214 137 199.315 133.235 192.713 130L291.845 70.5576L185.107 4.75355C188.547 1.80848 189.483 1.40372 192.713 0.999969C198.749 0.245423 208.994 2.28526 222.704 4.75355C236.415 7.22183 291.845 41.4861 291.845 41.4861C292.474 35.3241 295.542 23.0002 302.785 23.0002C310.029 23.0002 312.343 35.3241 312.594 41.4861L314.858 41.4861C315.235 35.7014 318.027 24.0565 326.176 23.7547C334.325 23.4528 336.362 35.4498 336.362 41.4861C353.339 41.4861 398.007 42.9197 440.864 48.6541C494.436 55.8221 575.813 91.6622 551.025 149.006C525.749 207.482 457.841 194.278 440.864 178.81C427.283 166.436 420.869 151.019 419.36 144.857C443.505 165.983 503.188 172.925 509.526 144.857C511.337 109.608 366.417 101.497 293.731 101.848C267.574 101.094 221 134 212.107 135.5Z" fill="#112378"/>
<path d="M475.916 116.401V123.256C475.916 124.203 475.149 124.97 474.202 124.97H468.204" stroke="#112378" stroke-width="3.42757" stroke-linecap="round"/>
<path d="M461.349 116.401V123.256C461.349 124.203 460.582 124.97 459.635 124.97H453.637" stroke="#112378" stroke-width="3.42757" stroke-linecap="round"/>
<path d="M329.387 102.691V109.546C329.387 110.493 328.62 111.26 327.674 111.26H322.532" stroke="#112378" stroke-width="3.42757" stroke-linecap="round"/>
<path d="M314.82 102.691V109.546C314.82 110.493 314.053 111.26 313.106 111.26H307.965" stroke="#112378" stroke-width="3.42757" stroke-linecap="round"/>
<circle r="3.77264" transform="matrix(-1 0 0 1 325.799 36.9587)" fill="#FFFEFE"/>
<circle r="1.28534" transform="matrix(-1 0 0 1 325.789 37.9956)" fill="black"/>
<circle r="3.77264" transform="matrix(-1 0 0 1 302.408 36.2043)" fill="#FFFEFE"/>
<circle r="1.28534" transform="matrix(-1 0 0 1 302.395 37.653)" fill="black"/>
<path fill-rule="evenodd" clip-rule="evenodd" d="M244.909 52.6792L264.244 61.9018C266.238 62.8528 267.084 65.2402 266.133 67.2341L255.744 89.0139C253.785 88.7061 251.836 88.1133 249.954 87.2157C239.486 82.2226 235.048 69.6888 240.041 59.2207C241.26 56.664 242.93 54.4669 244.909 52.6792Z" fill="#BDC5E9"/>
<path d="M231.702 69.2875C232.095 69.675 232.1 70.3082 231.712 70.7017L225.397 77.114C225.01 77.5075 224.377 77.5124 223.983 77.1248C223.59 76.7373 223.585 76.1042 223.972 75.7107L229.586 70.0108L223.886 64.3973C223.492 64.0098 223.488 63.3766 223.875 62.9831C224.263 62.5896 224.896 62.5848 225.289 62.9723L231.702 69.2875ZM99.9924 70L230.992 69L231.008 71L100.008 72L99.9924 70Z" fill="#112378"/>
<path d="M4.28 43.02L0.5 29H2.78L5.56 40.6L8.76 29H11.1L14.2 40.6L16.98 29H19.26L15.42 43H12.94L9.88 32.02L6.72 43L4.28 43.02ZM24.73 43.24C23.7567 43.24 22.89 43.0267 22.13 42.6C21.3833 42.16 20.7967 41.5533 20.37 40.78C19.9433 40.0067 19.73 39.1067 19.73 38.08C19.73 37.04 19.9367 36.1267 20.35 35.34C20.7767 34.5533 21.3633 33.94 22.11 33.5C22.87 33.06 23.75 32.84 24.75 32.84C25.7233 32.84 26.57 33.06 27.29 33.5C28.01 33.9267 28.57 34.5 28.97 35.22C29.37 35.94 29.57 36.7333 29.57 37.6C29.57 37.7333 29.5633 37.88 29.55 38.04C29.55 38.1867 29.5433 38.3533 29.53 38.54H21.81C21.8767 39.5 22.19 40.2333 22.75 40.74C23.3233 41.2333 23.9833 41.48 24.73 41.48C25.33 41.48 25.83 41.3467 26.23 41.08C26.6433 40.8 26.95 40.4267 27.15 39.96H29.27C29.0033 40.8933 28.47 41.6733 27.67 42.3C26.8833 42.9267 25.9033 43.24 24.73 43.24ZM24.73 34.58C24.0233 34.58 23.3967 34.7933 22.85 35.22C22.3033 35.6333 21.97 36.26 21.85 37.1H27.45C27.41 36.3267 27.1367 35.7133 26.63 35.26C26.1233 34.8067 25.49 34.58 24.73 34.58ZM41.4488 43.24C40.5021 43.24 39.6488 43.0267 38.8888 42.6C38.1421 42.16 37.5488 41.5533 37.1088 40.78C36.6688 39.9933 36.4488 39.08 36.4488 38.04C36.4488 37 36.6688 36.0933 37.1088 35.32C37.5621 34.5333 38.1688 33.9267 38.9288 33.5C39.6888 33.06 40.5354 32.84 41.4688 32.84C42.4154 32.84 43.2621 33.06 44.0088 33.5C44.7688 33.9267 45.3688 34.5333 45.8088 35.32C46.2621 36.0933 46.4887 37 46.4887 38.04C46.4887 39.08 46.2621 39.9933 45.8088 40.78C45.3688 41.5533 44.7688 42.16 44.0088 42.6C43.2488 43.0267 42.3954 43.24 41.4488 43.24ZM41.4488 41.42C41.9554 41.42 42.4221 41.2933 42.8488 41.04C43.2888 40.7867 43.6421 40.4133 43.9088 39.92C44.1754 39.4133 44.3088 38.7867 44.3088 38.04C44.3088 37.2933 44.1754 36.6733 43.9088 36.18C43.6554 35.6733 43.3088 35.2933 42.8688 35.04C42.4421 34.7867 41.9754 34.66 41.4688 34.66C40.9621 34.66 40.4888 34.7867 40.0488 35.04C39.6221 35.2933 39.2754 35.6733 39.0088 36.18C38.7421 36.6733 38.6088 37.2933 38.6088 38.04C38.6088 38.7867 38.7421 39.4133 39.0088 39.92C39.2754 40.4133 39.6221 40.7867 40.0488 41.04C40.4754 41.2933 40.9421 41.42 41.4488 41.42ZM48.7814 43V33.08H50.6614L50.8214 34.82C51.1281 34.2067 51.5747 33.7267 52.1614 33.38C52.7614 33.02 53.4481 32.84 54.2214 32.84C55.4214 32.84 56.3614 33.2133 57.0414 33.96C57.7347 34.7067 58.0814 35.82 58.0814 37.3V43H55.9814V37.52C55.9814 35.6 55.1947 34.64 53.6214 34.64C52.8347 34.64 52.1814 34.92 51.6614 35.48C51.1547 36.04 50.9014 36.84 50.9014 37.88V43H48.7814ZM60.5783 43V28.6H62.6983V43H60.5783ZM66.543 47.4L68.923 42.18H68.343L64.423 33.08H66.723L69.763 40.42L72.943 33.08H75.183L68.783 47.4H66.543ZM5.5 75C4.52667 75 3.75333 74.7667 3.18 74.3C2.60667 73.82 2.32 72.9733 2.32 71.76V66.86H0.62V65.08H2.32L2.58 62.56H4.44V65.08H7.24V66.86H4.44V71.76C4.44 72.3067 4.55333 72.6867 4.78 72.9C5.02 73.1 5.42667 73.2 6 73.2H7.14V75H5.5ZM12.7859 75.24C11.9459 75.24 11.2526 75.1 10.7059 74.82C10.1593 74.54 9.7526 74.1733 9.48594 73.72C9.21927 73.2533 9.08594 72.7467 9.08594 72.2C9.08594 71.24 9.45927 70.48 10.2059 69.92C10.9526 69.36 12.0193 69.08 13.4059 69.08H16.0059V68.9C16.0059 68.1267 15.7926 67.5467 15.3659 67.16C14.9526 66.7733 14.4126 66.58 13.7459 66.58C13.1593 66.58 12.6459 66.7267 12.2059 67.02C11.7793 67.3 11.5193 67.72 11.4259 68.28H9.30594C9.3726 67.56 9.6126 66.9467 10.0259 66.44C10.4526 65.92 10.9859 65.5267 11.6259 65.26C12.2793 64.98 12.9926 64.84 13.7659 64.84C15.1526 64.84 16.2259 65.2067 16.9859 65.94C17.7459 66.66 18.1259 67.6467 18.1259 68.9V75H16.2859L16.1059 73.3C15.8259 73.8467 15.4193 74.3067 14.8859 74.68C14.3526 75.0533 13.6526 75.24 12.7859 75.24ZM13.2059 73.52C13.7793 73.52 14.2593 73.3867 14.6459 73.12C15.0459 72.84 15.3526 72.4733 15.5659 72.02C15.7926 71.5667 15.9326 71.0667 15.9859 70.52H13.6259C12.7859 70.52 12.1859 70.6667 11.8259 70.96C11.4793 71.2533 11.3059 71.62 11.3059 72.06C11.3059 72.5133 11.4726 72.8733 11.8059 73.14C12.1526 73.3933 12.6193 73.52 13.2059 73.52ZM20.5978 75V60.6H22.7178V69.18L26.5178 65.08H29.0578L24.8378 69.58L29.6778 75H26.9978L22.7178 69.92V75H20.5978ZM35.1988 75.24C34.2254 75.24 33.3588 75.0267 32.5988 74.6C31.8521 74.16 31.2654 73.5533 30.8388 72.78C30.4121 72.0067 30.1988 71.1067 30.1988 70.08C30.1988 69.04 30.4054 68.1267 30.8188 67.34C31.2454 66.5533 31.8321 65.94 32.5788 65.5C33.3388 65.06 34.2188 64.84 35.2188 64.84C36.1921 64.84 37.0388 65.06 37.7588 65.5C38.4788 65.9267 39.0388 66.5 39.4388 67.22C39.8388 67.94 40.0388 68.7333 40.0388 69.6C40.0388 69.7333 40.0321 69.88 40.0188 70.04C40.0188 70.1867 40.0121 70.3533 39.9988 70.54H32.2788C32.3454 71.5 32.6588 72.2333 33.2188 72.74C33.7921 73.2333 34.4521 73.48 35.1988 73.48C35.7988 73.48 36.2988 73.3467 36.6988 73.08C37.1121 72.8 37.4188 72.4267 37.6188 71.96H39.7388C39.4721 72.8933 38.9388 73.6733 38.1388 74.3C37.3521 74.9267 36.3721 75.24 35.1988 75.24ZM35.1988 66.58C34.4921 66.58 33.8654 66.7933 33.3188 67.22C32.7721 67.6333 32.4388 68.26 32.3188 69.1H37.9188C37.8788 68.3267 37.6054 67.7133 37.0988 67.26C36.5921 66.8067 35.9588 66.58 35.1988 66.58ZM51.4375 75C50.4642 75 49.6908 74.7667 49.1175 74.3C48.5442 73.82 48.2575 72.9733 48.2575 71.76V66.86H46.5575V65.08H48.2575L48.5175 62.56H50.3775V65.08H53.1775V66.86H50.3775V71.76C50.3775 72.3067 50.4908 72.6867 50.7175 72.9C50.9575 73.1 51.3642 73.2 51.9375 73.2H53.0775V75H51.4375ZM55.3634 75V60.6H57.4834V66.68C57.8168 66.1067 58.2768 65.66 58.8634 65.34C59.4634 65.0067 60.1234 64.84 60.8434 64.84C62.0301 64.84 62.9634 65.2133 63.6434 65.96C64.3234 66.7067 64.6634 67.82 64.6634 69.3V75H62.5634V69.52C62.5634 67.6 61.7968 66.64 60.2634 66.64C59.4634 66.64 58.7968 66.92 58.2634 67.48C57.7434 68.04 57.4834 68.84 57.4834 69.88V75H55.3634ZM68.3603 63.2C67.9603 63.2 67.627 63.08 67.3603 62.84C67.107 62.5867 66.9803 62.2733 66.9803 61.9C66.9803 61.5267 67.107 61.22 67.3603 60.98C67.627 60.7267 67.9603 60.6 68.3603 60.6C68.7603 60.6 69.087 60.7267 69.3403 60.98C69.607 61.22 69.7403 61.5267 69.7403 61.9C69.7403 62.2733 69.607 62.5867 69.3403 62.84C69.087 63.08 68.7603 63.2 68.3603 63.2ZM67.3003 75V65.08H69.4203V75H67.3003ZM76.1789 75.24C74.9256 75.24 73.8922 74.9333 73.0789 74.32C72.2656 73.7067 71.7989 72.8933 71.6789 71.88H73.8189C73.9256 72.3333 74.1789 72.7267 74.5789 73.06C74.9789 73.38 75.5056 73.54 76.1589 73.54C76.7989 73.54 77.2656 73.4067 77.5589 73.14C77.8522 72.8733 77.9989 72.5667 77.9989 72.22C77.9989 71.7133 77.7922 71.3733 77.3789 71.2C76.9789 71.0133 76.4189 70.8467 75.6989 70.7C75.1389 70.58 74.5789 70.42 74.0189 70.22C73.4722 70.02 73.0122 69.74 72.6389 69.38C72.2789 69.0067 72.0989 68.5067 72.0989 67.88C72.0989 67.0133 72.4322 66.2933 73.0989 65.72C73.7656 65.1333 74.6989 64.84 75.8989 64.84C77.0056 64.84 77.8989 65.1067 78.5789 65.64C79.2722 66.1733 79.6789 66.9267 79.7989 67.9H77.7589C77.6922 67.4733 77.4922 67.14 77.1589 66.9C76.8389 66.66 76.4056 66.54 75.8589 66.54C75.3256 66.54 74.9122 66.6533 74.6189 66.88C74.3256 67.0933 74.1789 67.3733 74.1789 67.72C74.1789 68.0667 74.3789 68.34 74.7789 68.54C75.1922 68.74 75.7322 68.92 76.3989 69.08C77.0656 69.2267 77.6789 69.4 78.2389 69.6C78.8122 69.7867 79.2722 70.0667 79.6189 70.44C79.9656 70.8133 80.1389 71.36 80.1389 72.08C80.1522 72.9867 79.7989 73.74 79.0789 74.34C78.3722 74.94 77.4056 75.24 76.1789 75.24ZM1.34 107V97.08H3.22L3.4 98.48C3.72 97.9733 4.14 97.5733 4.66 97.28C5.19333 96.9867 5.80667 96.84 6.5 96.84C8.07333 96.84 9.16667 97.46 9.78 98.7C10.14 98.1267 10.62 97.6733 11.22 97.34C11.8333 97.0067 12.4933 96.84 13.2 96.84C14.44 96.84 15.4133 97.2133 16.12 97.96C16.8267 98.7067 17.18 99.82 17.18 101.3V107H15.06V101.52C15.06 99.6 14.3267 98.64 12.86 98.64C12.1133 98.64 11.5 98.92 11.02 99.48C10.5533 100.04 10.32 100.84 10.32 101.88V107H8.2V101.52C8.2 99.6 7.46 98.64 5.98 98.64C5.24667 98.64 4.64 98.92 4.16 99.48C3.69333 100.04 3.46 100.84 3.46 101.88V107H1.34ZM23.3203 107.24C22.1203 107.24 21.1736 106.867 20.4803 106.12C19.8003 105.373 19.4603 104.26 19.4603 102.78V97.08H21.5803V102.56C21.5803 104.48 22.367 105.44 23.9403 105.44C24.727 105.44 25.3736 105.16 25.8803 104.6C26.387 104.04 26.6403 103.24 26.6403 102.2V97.08H28.7603V107H26.8803L26.7203 105.26C26.4136 105.873 25.9603 106.36 25.3603 106.72C24.7736 107.067 24.0936 107.24 23.3203 107.24ZM36.1572 107.24C35.1839 107.24 34.3105 107.02 33.5372 106.58C32.7772 106.14 32.1772 105.533 31.7372 104.76C31.3105 103.973 31.0972 103.067 31.0972 102.04C31.0972 101.013 31.3105 100.113 31.7372 99.34C32.1772 98.5533 32.7772 97.94 33.5372 97.5C34.3105 97.06 35.1839 96.84 36.1572 96.84C37.3839 96.84 38.4105 97.16 39.2372 97.8C40.0772 98.44 40.6172 99.3067 40.8572 100.4H38.6372C38.5039 99.8533 38.2105 99.4267 37.7572 99.12C37.3039 98.8133 36.7705 98.66 36.1572 98.66C35.6372 98.66 35.1572 98.7933 34.7172 99.06C34.2772 99.3133 33.9239 99.6933 33.6572 100.2C33.3905 100.693 33.2572 101.307 33.2572 102.04C33.2572 102.773 33.3905 103.393 33.6572 103.9C33.9239 104.393 34.2772 104.773 34.7172 105.04C35.1572 105.307 35.6372 105.44 36.1572 105.44C36.7705 105.44 37.3039 105.287 37.7572 104.98C38.2105 104.673 38.5039 104.24 38.6372 103.68H40.8572C40.6305 104.747 40.0972 105.607 39.2572 106.26C38.4172 106.913 37.3839 107.24 36.1572 107.24ZM43.1564 107V92.6H45.2764V98.68C45.6097 98.1067 46.0697 97.66 46.6564 97.34C47.2564 97.0067 47.9164 96.84 48.6364 96.84C49.8231 96.84 50.7564 97.2133 51.4364 97.96C52.1164 98.7067 52.4564 99.82 52.4564 101.3V107H50.3564V101.52C50.3564 99.6 49.5897 98.64 48.0564 98.64C47.2564 98.64 46.5897 98.92 46.0564 99.48C45.5364 100.04 45.2764 100.84 45.2764 101.88V107H43.1564ZM55.7933 107.12C55.3933 107.12 55.0599 106.993 54.7933 106.74C54.5399 106.473 54.4133 106.16 54.4133 105.8C54.4133 105.427 54.5399 105.113 54.7933 104.86C55.0599 104.593 55.3933 104.46 55.7933 104.46C56.1933 104.46 56.5199 104.593 56.7733 104.86C57.0266 105.113 57.1533 105.427 57.1533 105.8C57.1533 106.16 57.0266 106.473 56.7733 106.74C56.5199 106.993 56.1933 107.12 55.7933 107.12Z" fill="#112378"/>
</svg>
