<svg width="64" height="64" viewBox="0 0 64 64" fill="none" xmlns="http://www.w3.org/2000/svg">
<rect width="64" height="64" rx="12" fill="#112378" fill-opacity="0.1"/>
<path d="M32 44.7832C33.7689 44.7832 35.432 44.4447 36.9893 43.7676C38.555 43.0905 39.9346 42.1553 41.1279 40.9619C42.3213 39.7686 43.2565 38.3932 43.9336 36.8359C44.6107 35.2702 44.9492 33.6029 44.9492 31.834C44.9492 30.0651 44.6107 28.402 43.9336 26.8447C43.2565 25.279 42.3213 23.8994 41.1279 22.7061C39.9346 21.5127 38.555 20.5775 36.9893 19.9004C35.4235 19.2233 33.7562 18.8848 31.9873 18.8848C30.2184 18.8848 28.5511 19.2233 26.9854 19.9004C25.4281 20.5775 24.0527 21.5127 22.8594 22.7061C21.6745 23.8994 20.7435 25.279 20.0664 26.8447C19.3893 28.402 19.0508 30.0651 19.0508 31.834C19.0508 33.6029 19.3893 35.2702 20.0664 36.8359C20.7435 38.3932 21.6787 39.7686 22.8721 40.9619C24.0654 42.1553 25.4408 43.0905 26.998 43.7676C28.5638 44.4447 30.2311 44.7832 32 44.7832ZM31.9873 39.3115C31.8096 39.3115 31.6615 39.2565 31.543 39.1465C31.4245 39.028 31.3652 38.8757 31.3652 38.6895V37.75C30.7812 37.6992 30.2396 37.5596 29.7402 37.3311C29.2493 37.1025 28.8304 36.8021 28.4834 36.4297C28.1364 36.0573 27.9036 35.6172 27.7852 35.1094C27.7682 35.0417 27.7513 34.974 27.7344 34.9062C27.7259 34.8385 27.7217 34.7708 27.7217 34.7031C27.7217 34.4746 27.7936 34.2884 27.9375 34.1445C28.0814 34.0007 28.2633 33.9287 28.4834 33.9287C28.6781 33.9287 28.8431 33.9837 28.9785 34.0938C29.1139 34.1953 29.2197 34.3604 29.2959 34.5889C29.4059 35.0205 29.6302 35.3887 29.9688 35.6934C30.3158 35.998 30.7812 36.1927 31.3652 36.2773V32.418L31.2764 32.3926C30.1846 32.1302 29.3594 31.7451 28.8008 31.2373C28.2422 30.721 27.9629 30.0482 27.9629 29.2188C27.9629 28.3216 28.2803 27.5853 28.915 27.0098C29.5583 26.4258 30.375 26.0788 31.3652 25.9688V25.0674C31.3652 24.8812 31.4245 24.7331 31.543 24.623C31.6615 24.5046 31.8096 24.4453 31.9873 24.4453C32.165 24.4453 32.3132 24.5046 32.4316 24.623C32.5501 24.7331 32.6094 24.8812 32.6094 25.0674V25.9688C33.4473 26.0618 34.1709 26.3411 34.7803 26.8066C35.3981 27.2637 35.7959 27.8434 35.9736 28.5459C35.9906 28.6136 36.0033 28.6813 36.0117 28.749C36.0286 28.8167 36.0371 28.8844 36.0371 28.9521C36.0371 29.1807 35.9652 29.3669 35.8213 29.5107C35.6774 29.6546 35.4912 29.7266 35.2627 29.7266C34.8734 29.7266 34.6068 29.5107 34.4629 29.0791C34.3275 28.639 34.099 28.2835 33.7773 28.0127C33.4642 27.7419 33.0749 27.5641 32.6094 27.4795V31.123L32.7871 31.1611C33.9212 31.3643 34.776 31.7367 35.3516 32.2783C35.9271 32.82 36.2148 33.5352 36.2148 34.4238C36.2148 35.4141 35.8678 36.1969 35.1738 36.7725C34.4798 37.3395 33.625 37.6738 32.6094 37.7754V38.6895C32.6094 38.8757 32.5501 39.028 32.4316 39.1465C32.3132 39.2565 32.165 39.3115 31.9873 39.3115ZM31.3652 30.793V27.4795C30.8151 27.5726 30.3792 27.7715 30.0576 28.0762C29.7445 28.3809 29.5879 28.7321 29.5879 29.1299C29.5879 29.5192 29.7233 29.8451 29.9941 30.1074C30.265 30.3698 30.6924 30.5898 31.2764 30.7676L31.3652 30.793ZM32.6094 32.7227V36.2773C33.278 36.2012 33.7731 36.0023 34.0947 35.6807C34.4248 35.359 34.5898 34.9697 34.5898 34.5127C34.5898 34.098 34.4629 33.751 34.209 33.4717C33.9635 33.1924 33.5234 32.9681 32.8887 32.7988L32.6094 32.7227Z" fill="#112378"/>
</svg>
