<svg width="25" height="24" viewBox="0 0 25 24" fill="none" xmlns="http://www.w3.org/2000/svg">
<g clip-path="url(#clip0_707_1420)">
<path d="M12.5037 7.95683C10.2323 7.95683 8.40011 9.76035 8.40011 11.9963C8.40011 14.2322 10.2323 16.0357 12.5037 16.0357C14.7751 16.0357 16.6073 14.2322 16.6073 11.9963C16.6073 9.76035 14.7751 7.95683 12.5037 7.95683ZM12.5037 14.6225C11.0358 14.6225 9.83583 13.4447 9.83583 11.9963C9.83583 10.5478 11.0323 9.37011 12.5037 9.37011C13.9751 9.37011 15.1715 10.5478 15.1715 11.9963C15.1715 13.4447 13.9715 14.6225 12.5037 14.6225ZM17.7322 7.7916C17.7322 8.31543 17.3037 8.73379 16.7751 8.73379C16.243 8.73379 15.818 8.31191 15.818 7.7916C15.818 7.27129 16.2465 6.84941 16.7751 6.84941C17.3037 6.84941 17.7322 7.27129 17.7322 7.7916ZM20.4501 8.74785C20.3894 7.48574 20.0965 6.36777 19.1572 5.44668C18.2215 4.52559 17.0858 4.2373 15.8037 4.17402C14.4823 4.1002 10.5215 4.1002 9.20011 4.17402C7.92154 4.23379 6.78583 4.52207 5.84654 5.44316C4.90726 6.36426 4.61797 7.48222 4.55369 8.74433C4.47869 10.0451 4.47869 13.9439 4.55369 15.2447C4.6144 16.5068 4.90726 17.6248 5.84654 18.5459C6.78583 19.467 7.91797 19.7553 9.20011 19.8185C10.5215 19.8924 14.4823 19.8924 15.8037 19.8185C17.0858 19.7588 18.2215 19.4705 19.1572 18.5459C20.093 17.6248 20.3858 16.5068 20.4501 15.2447C20.5251 13.9439 20.5251 10.0486 20.4501 8.74785ZM18.743 16.6404C18.4644 17.3295 17.9251 17.8603 17.2215 18.1381C16.168 18.5494 13.668 18.4545 12.5037 18.4545C11.3394 18.4545 8.83583 18.5459 7.78583 18.1381C7.08583 17.8639 6.54654 17.333 6.2644 16.6404C5.84654 15.6033 5.94297 13.1424 5.94297 11.9963C5.94297 10.8502 5.85011 8.38574 6.2644 7.35215C6.54297 6.66308 7.08226 6.13223 7.78583 5.85449C8.8394 5.44316 11.3394 5.53809 12.5037 5.53809C13.668 5.53809 16.1715 5.44668 17.2215 5.85449C17.9215 6.12871 18.4608 6.65957 18.743 7.35215C19.1608 8.38926 19.0644 10.8502 19.0644 11.9963C19.0644 13.1424 19.1608 15.6068 18.743 16.6404Z" fill="#112378"/>
</g>
<defs>
<clipPath id="clip0_707_1420">
<rect width="16" height="18" fill="white" transform="translate(4.50012 3)"/>
</clipPath>
</defs>
</svg>
