<svg width="25" height="24" viewBox="0 0 25 24" fill="none" xmlns="http://www.w3.org/2000/svg">
<path d="M19.9308 5.24342C18.6561 4.6679 17.2891 4.24388 15.8599 4.00102C15.8339 3.99633 15.8079 4.00805 15.7945 4.03147C15.6187 4.33914 15.424 4.74052 15.2876 5.056C13.7503 4.82954 12.221 4.82954 10.7153 5.056C10.5789 4.73349 10.3771 4.33914 10.2005 4.03147C10.1871 4.00883 10.1611 3.99711 10.1351 4.00102C8.7066 4.24309 7.33963 4.66712 6.06411 5.24342C6.05308 5.2481 6.04362 5.25591 6.03731 5.26606C3.44449 9.0776 2.73421 12.7954 3.08265 16.4672C3.08423 16.4851 3.09448 16.5023 3.10866 16.5133C4.81934 17.7494 6.47641 18.4998 8.10274 18.9973C8.12875 19.0051 8.15634 18.9957 8.1729 18.9746C8.5576 18.4577 8.90053 17.9126 9.19457 17.3394C9.21192 17.3059 9.19536 17.266 9.15989 17.2528C8.61594 17.0497 8.09801 16.8022 7.59978 16.5211C7.56037 16.4984 7.55721 16.443 7.59348 16.4164C7.69832 16.3391 7.80317 16.2587 7.90329 16.1775C7.92142 16.1626 7.94665 16.1595 7.96793 16.1689C11.2411 17.6393 14.7846 17.6393 18.0191 16.1689C18.0404 16.1587 18.0657 16.1618 18.0846 16.1767C18.1847 16.2579 18.2895 16.3391 18.3952 16.4164C18.4314 16.443 18.4291 16.4984 18.3897 16.5211C17.8914 16.8076 17.3735 17.0497 16.8288 17.252C16.7933 17.2653 16.7775 17.3059 16.7949 17.3394C17.0952 17.9118 17.4381 18.4569 17.8158 18.9738C17.8315 18.9957 17.8599 19.0051 17.8859 18.9973C19.5201 18.4998 21.1772 17.7494 22.8879 16.5133C22.9028 16.5023 22.9123 16.4859 22.9139 16.468C23.3309 12.223 22.2154 8.53566 19.9569 5.26684C19.9513 5.25591 19.9419 5.2481 19.9308 5.24342ZM9.68334 14.2315C8.69793 14.2315 7.88595 13.3413 7.88595 12.248C7.88595 11.1548 8.68216 10.2646 9.68334 10.2646C10.6924 10.2646 11.4965 11.1626 11.4807 12.248C11.4807 13.3413 10.6845 14.2315 9.68334 14.2315ZM16.329 14.2315C15.3435 14.2315 14.5316 13.3413 14.5316 12.248C14.5316 11.1548 15.3278 10.2646 16.329 10.2646C17.338 10.2646 18.1421 11.1626 18.1264 12.248C18.1264 13.3413 17.338 14.2315 16.329 14.2315Z" fill="#112378"/>
</svg>
