<svg width="25" height="24" viewBox="0 0 25 24" fill="none" xmlns="http://www.w3.org/2000/svg">
<g clip-path="url(#clip0_707_1409)">
<mask id="mask0_707_1409" style="mask-type:alpha" maskUnits="userSpaceOnUse" x="3" y="5" width="20" height="14">
<rect x="3.54004" y="5.3999" width="18.92" height="13.2" fill="#D9D9D9"/>
</mask>
<g mask="url(#mask0_707_1409)">
<path fill-rule="evenodd" clip-rule="evenodd" d="M4.68262 6.5567C4.7076 6.51041 4.76805 6.49898 4.80977 6.531L12.6175 12.5235L12.9665 12.7914C12.9982 12.8157 13.0423 12.8156 13.0739 12.7912L13.4223 12.5226L21.1912 6.53305C21.233 6.50087 21.2936 6.51229 21.3185 6.5587C21.4854 6.86866 21.58 7.22323 21.58 7.5999V16.3999C21.58 17.6149 20.5951 18.5999 19.38 18.5999H6.62005C5.40502 18.5999 4.42004 17.6149 4.42004 16.3999V7.5999C4.42004 7.22241 4.51512 6.86713 4.68262 6.5567ZM5.86002 5.67311C5.80685 5.6323 5.81724 5.54987 5.88035 5.52734C6.11152 5.44483 6.36053 5.3999 6.62004 5.3999H19.38C19.6408 5.3999 19.8909 5.44526 20.123 5.52851C20.186 5.5511 20.1963 5.63331 20.1434 5.67415L13.072 11.1259C13.0404 11.1503 12.9964 11.1503 12.9647 11.126L5.86002 5.67311Z" fill="#112378"/>
</g>
</g>
<defs>
<clipPath id="clip0_707_1409">
<rect width="18" height="14" fill="white" transform="translate(4 5)"/>
</clipPath>
</defs>
</svg>
